<svg xmlns="http://www.w3.org/2000/svg" width="340.1740417480469" height="295.8504943847656" viewBox="-170.3470916748047 -113.35910034179688 340.1740417480469 295.8504943847656"><title>Neo4j Graph Visualization</title><desc>Created using Neo4j (http://www.neo4j.com/)</desc><g class="layer relationships"><g class="relationship" transform="translate(0.3402059838325321 86.1881365767777) rotate(299.78418010824294)"><path class="b-outline" fill="#A5ABB6" stroke="none" d="M 21.40063509461097,12.933012701892217 L 21.90063509461097,12.06698729810778 A 102.76143790585655 102.76143790585655 0 0 0 55.31489236361156,24.251622329028464 L 55.140055751259105,25.236219789405595 A 103.76143790585655 103.76143790585655 0 0 1 21.40063509461097,12.933012701892217 Z M 86.80161464735563,25.949784039515706 L 86.67131324759974,24.958309609577313 A 102.76143790585655 102.76143790585655 0 0 0 120.6005810637284,14.291411975442434 L 119.21915157090035,11.628396287102454 L 127.04452258532636,11.511912440233672 L 122.44248705416578,17.842099559895743 L 121.06105756133773,15.179083871555763 A 103.76143790585655 103.76143790585655 0 0 1 86.80161464735563,25.949784039515706"/><text text-anchor="middle" pointer-events="none" font-size="8px" fill="#000000" x="70.95471672380434" y="29.30819478094135" font-family="Helvetica Neue, Helvetica, Arial, sans-serif">TAKES</text></g><g class="relationship" transform="translate(-74.81121748737223 -42.85367714572481) rotate(359.8154723388154)"><path class="b-outline" fill="#A5ABB6" stroke="none" d="M 21.40063509461097,12.933012701892217 L 21.90063509461097,12.06698729810778 A 102.80895719836126 102.80895719836126 0 0 0 55.33816260819859,24.258644859240334 L 55.16340204671437,25.24325582106725 A 103.80895719836126 103.80895719836126 0 0 1 21.40063509461097,12.933012701892217 Z M 86.82500969257904,25.956606734362538 L 86.69477145145162,24.96512400604699 A 102.80895719836126 102.80895719836126 0 0 0 120.64745776263835,14.291799661495288 L 119.26599221647479,11.62880267599887 L 127.09136165315725,11.512212884696382 L 122.48941182418977,17.842462308823848 L 121.1079462780262,15.17946532332743 A 103.80895719836126 103.80895719836126 0 0 1 86.82500969257904,25.956606734362538"/><text text-anchor="middle" pointer-events="none" font-size="8px" fill="#000000" x="70.97810483911367" y="29.314564849957904" font-family="Helvetica Neue, Helvetica, Arial, sans-serif">TAKES</text></g><g class="relationship" transform="translate(74.47101150353969 -43.334459431052935) rotate(239.79982622352918)"><path class="b-outline" fill="#A5ABB6" stroke="none" d="M 6.953439040707552 24.018736134675446 L 17.306200844808384 62.65576918623819 A 17.916697508022974 17.916697508022974 0 1 1 -17.306200844808384 62.65576918623819 L -8.765172356425198 30.780216918698923 L -4.901469051268926 31.815493099109005 L -6.4704761275630185 24.148145657226706 L -11.662949835292403 30.00375978339136 L -7.79924653013613 31.039035963801442 L -16.340275018519314 62.91458823134071 A 16.916697508022974 16.916697508022974 0 1 0 16.340275018519314 62.91458823134071 L 5.987513214418485 24.277555179777966 Z"/><text text-anchor="middle" pointer-events="none" font-size="8px" fill="#000000" x="0" y="94.20964923467838" transform="rotate(180 0 91.20964923467838)" font-family="Helvetica Neue, Helvetica, Arial, sans-serif">INHERITS</text></g><g class="relationship" transform="translate(-74.81121748737223 -42.85367714572481) rotate(359.8154723388154)"><path class="b-outline" fill="#A5ABB6" stroke="none" d="M 25 0.5 L 48.80751722448041 0.5 L 48.80751722448041 -0.5 L 25 -0.5 Z M 93.4754859744804 0.5 L 117.28300319896081 0.5 L 117.28300319896081 3.5 L 124.28300319896081 0 L 117.28300319896081 -3.5 L 117.28300319896081 -0.5 L 93.4754859744804 -0.5 Z"/><text text-anchor="middle" pointer-events="none" font-size="8px" fill="#000000" x="71.1415015994804" y="3" font-family="Helvetica Neue, Helvetica, Arial, sans-serif">RETURNS</text></g><g class="relationship" transform="translate(0.3402059838325321 86.1881365767777) rotate(299.78418010824294)"><path class="b-outline" fill="#A5ABB6" stroke="none" d="M 25 0.5 L 48.784175619079775 0.5 L 48.784175619079775 -0.5 L 25 -0.5 Z M 93.45214436907978 0.5 L 117.23631998815955 0.5 L 117.23631998815955 3.5 L 124.23631998815955 0 L 117.23631998815955 -3.5 L 117.23631998815955 -0.5 L 93.45214436907978 -0.5 Z"/><text text-anchor="middle" pointer-events="none" font-size="8px" fill="#000000" x="71.11815999407978" y="3" font-family="Helvetica Neue, Helvetica, Arial, sans-serif">RETURNS</text></g><g class="relationship" transform="translate(0.3402059838325321 86.1881365767777) rotate(239.78431672778436)"><path class="b-outline" fill="#A5ABB6" stroke="none" d="M 24.018736134675446,-6.953439040707552 L 24.277555179777966,-5.987513214418485 A 189.52086428627564 189.52086428627564 0 0 1 55.52323741256191,-11.606971855877873 L 55.42928508200532,-12.60254855286459 A 190.52086428627564 190.52086428627564 0 0 0 24.018736134675446,-6.953439040707552 Z M 86.82168331702356,-12.966915392269414 L 86.75086420192972,-11.969426217923484 A 189.52086428627564 189.52086428627564 0 0 1 118.11855964659648,-7.0767116231596185 L 117.4095707627512,-4.161692796019078 L 125.03843505723196,-5.908240698710707 L 119.0638781583902,-10.963403392680341 L 118.35488927454492,-8.048384565539799 A 190.52086428627564 190.52086428627564 0 0 0 86.82168331702356,-12.966915392269414"/><text text-anchor="middle" pointer-events="none" font-size="8px" fill="#000000" x="71.12376929122007" y="-9.93248165308492" transform="rotate(180 71.12376929122007 -12.93248165308492)" font-family="Helvetica Neue, Helvetica, Arial, sans-serif">CALLS</text></g><g class="relationship" transform="translate(-74.81121748737223 -42.85367714572481) rotate(419.78431672778436)"><path class="b-outline" fill="#A5ABB6" stroke="none" d="M 24.018736134675446,-6.953439040707552 L 24.277555179777966,-5.987513214418485 A 189.52086428627564 189.52086428627564 0 0 1 55.52323741256191,-11.606971855877873 L 55.42928508200532,-12.60254855286459 A 190.52086428627564 190.52086428627564 0 0 0 24.018736134675446,-6.953439040707552 Z M 86.82168331702356,-12.966915392269414 L 86.75086420192972,-11.969426217923484 A 189.52086428627564 189.52086428627564 0 0 1 118.11855964659648,-7.0767116231596185 L 117.4095707627512,-4.161692796019078 L 125.03843505723196,-5.908240698710707 L 119.0638781583902,-10.963403392680341 L 118.35488927454492,-8.048384565539799 A 190.52086428627564 190.52086428627564 0 0 0 86.82168331702356,-12.966915392269414"/><text text-anchor="middle" pointer-events="none" font-size="8px" fill="#000000" x="71.12376929122007" y="-9.93248165308492" font-family="Helvetica Neue, Helvetica, Arial, sans-serif">CALLS</text></g><g class="relationship" transform="translate(0.3402059838325321 86.1881365767777) rotate(359.78424841801365)"><path class="b-outline" fill="#A5ABB6" stroke="none" d="M 6.953439040707552 24.018736134675446 L 17.306200844808384 62.65576918623819 A 17.916697508022974 17.916697508022974 0 1 1 -17.306200844808384 62.65576918623819 L -8.765172356425198 30.780216918698923 L -4.901469051268926 31.815493099109005 L -6.4704761275630185 24.148145657226706 L -11.662949835292403 30.00375978339136 L -7.79924653013613 31.039035963801442 L -16.340275018519314 62.91458823134071 A 16.916697508022974 16.916697508022974 0 1 0 16.340275018519314 62.91458823134071 L 5.987513214418485 24.277555179777966 Z"/><text text-anchor="middle" pointer-events="none" font-size="8px" fill="#000000" x="0" y="94.20964923467838" font-family="Helvetica Neue, Helvetica, Arial, sans-serif">CALLS</text></g><g class="relationship" transform="translate(-74.81121748737223 -42.85367714572481) rotate(479.7998945332999)"><path class="b-outline" fill="#A5ABB6" stroke="none" d="M 6.953439040707552 24.018736134675446 L 17.306200844808384 62.65576918623819 A 17.916697508022974 17.916697508022974 0 1 1 -17.306200844808384 62.65576918623819 L -8.765172356425198 30.780216918698923 L -4.901469051268926 31.815493099109005 L -6.4704761275630185 24.148145657226706 L -11.662949835292403 30.00375978339136 L -7.79924653013613 31.039035963801442 L -16.340275018519314 62.91458823134071 A 16.916697508022974 16.916697508022974 0 1 0 16.340275018519314 62.91458823134071 L 5.987513214418485 24.277555179777966 Z"/><text text-anchor="middle" pointer-events="none" font-size="8px" fill="#000000" x="0" y="94.20964923467838" transform="rotate(180 0 91.20964923467838)" font-family="Helvetica Neue, Helvetica, Arial, sans-serif">CALLS</text></g><g class="relationship" transform="translate(74.47101150353969 -43.334459431052935) rotate(539.8154723388154)"><path class="b-outline" fill="#A5ABB6" stroke="none" d="M 21.40063509461097,12.933012701892217 L 21.90063509461097,12.06698729810778 A 102.80895719836126 102.80895719836126 0 0 0 47.99223337070421,22.67588403036953 L 47.74602057939802,23.645099827494818 A 103.80895719836126 103.80895719836126 0 0 1 21.40063509461097,12.933012701892217 Z M 94.30684240212832,24.69413704450936 L 94.10453106719982,23.714815787842554 A 102.80895719836126 102.80895719836126 0 0 0 120.64745776263835,14.291799661495288 L 119.26599221647479,11.62880267599887 L 127.09136165315725,11.512212884696382 L 122.48941182418977,17.842462308823848 L 121.1079462780262,15.17946532332743 A 103.80895719836126 103.80895719836126 0 0 1 94.30684240212832,24.69413704450936"/><text text-anchor="middle" pointer-events="none" font-size="8px" fill="#000000" x="70.97810483911367" y="29.314564849957904" transform="rotate(180 70.97810483911367 26.314564849957904)" font-family="Helvetica Neue, Helvetica, Arial, sans-serif">CONTAINS</text></g><g class="relationship" transform="translate(74.47101150353969 -43.334459431052935) rotate(479.78418010824294)"><path class="b-outline" fill="#A5ABB6" stroke="none" d="M 21.40063509461097,12.933012701892217 L 21.90063509461097,12.06698729810778 A 102.76143790585655 102.76143790585655 0 0 0 47.96912998211782,22.668174405314176 L 47.72280972248297,23.637362895595317 A 103.76143790585655 103.76143790585655 0 0 1 21.40063509461097,12.933012701892217 Z M 94.28336072392669,24.68670935289039 L 94.08095405821102,23.70740779480225 A 102.76143790585655 102.76143790585655 0 0 0 120.6005810637284,14.291411975442434 L 119.21915157090035,11.628396287102454 L 127.04452258532636,11.511912440233672 L 122.44248705416578,17.842099559895743 L 121.06105756133773,15.179083871555763 A 103.76143790585655 103.76143790585655 0 0 1 94.28336072392669,24.68670935289039"/><text text-anchor="middle" pointer-events="none" font-size="8px" fill="#000000" x="70.95471672380434" y="29.30819478094135" transform="rotate(180 70.95471672380434 26.30819478094135)" font-family="Helvetica Neue, Helvetica, Arial, sans-serif">CONTAINS</text></g></g><g class="layer nodes"><g class="node" aria-label="graph-node-83" transform="translate(0.3402059838325321,86.1881365767777)"><circle class="b-outline" cx="0" cy="0" r="25" fill="#57C7E3" stroke="#23b3d7" stroke-width="2px"/><text class="caption" text-anchor="middle" pointer-events="none" x="0" y="5" font-size="10px" fill="#2A2C34" font-family="Helvetica Neue, Helvetica, Arial, sans-serif"> Function</text></g><g class="node" aria-label="graph-node-82" transform="translate(74.47101150353969,-43.334459431052935)"><circle class="b-outline" cx="0" cy="0" r="25" fill="#F16667" stroke="#eb2728" stroke-width="2px"/><text class="caption" text-anchor="middle" pointer-events="none" x="0" y="5" font-size="10px" fill="#FFFFFF" font-family="Helvetica Neue, Helvetica, Arial, sans-serif"> Class</text></g><g class="node" aria-label="graph-node-84" transform="translate(-74.81121748737223,-42.85367714572481)"><circle class="b-outline" cx="0" cy="0" r="25" fill="#FFC454" stroke="#d7a013" stroke-width="2px"/><text class="caption" text-anchor="middle" pointer-events="none" x="0" y="5" font-size="10px" fill="#2A2C34" font-family="Helvetica Neue, Helvetica, Arial, sans-serif"> Method</text></g></g></svg>