<svg xmlns="http://www.w3.org/2000/svg" width="715.2774658203125" height="835.1448364257812" viewBox="-401.35089111328125 -429.73870849609375 715.2774658203125 835.1448364257812"><title>Neo4j Graph Visualization</title><desc>Created using Neo4j (http://www.neo4j.com/)</desc><g class="layer relationships"><g class="relationship" transform="translate(-229.7757188108101 -310.8877057895154) rotate(359.9427379235656)"><path class="b-outline" fill="#ECB5C9" stroke="none" d="M 34.14101615137755,20.866025403784434 L 35.14101615137755,19.13397459621556 A 324.23260336845266 324.23260336845266 0 0 0 178.28016639483454,62.01706928536322 L 178.1631075226322,64.01364065159055 A 326.23260336845266 326.23260336845266 0 0 1 34.14101615137755,20.866025403784434 Z M 209.88694311759676,64.32834617038355 L 209.8095159987154,62.3298454720445 A 324.23260336845266 324.23260336845266 0 0 0 353.77122707436223,22.294837207909726 L 352.32306386425256,19.667514746375005 L 361.26014137515807,19.30884280146217 L 356.18483242454505,26.673707977134256 L 354.7366692144354,24.046385515599535 A 326.23260336845266 326.23260336845266 0 0 1 209.88694311759676,64.32834617038355"/><text text-anchor="middle" pointer-events="none" font-size="8px" fill="#000000" x="194.03111717634812" y="66.55690489304294" font-family="Helvetica Neue, Helvetica, Arial, sans-serif">TAKES</text></g><g class="relationship" transform="translate(-24.835552732408516 300.3318603526079) rotate(287.3728720649357)"><path class="b-outline" fill="#ECB5C9" stroke="none" d="M 34.14101615137755,20.866025403784434 L 35.14101615137755,19.13397459621556 A 569.4694705915955 569.4694705915955 0 0 0 300.570468373407,95.10109381429038 L 300.50266743210733,97.09994424200102 A 571.4694705915955 571.4694705915955 0 0 1 34.14101615137755,20.866025403784434 Z M 332.19408983624055,97.29563727459958 L 332.1509787374926,95.29610197029399 A 569.4694705915955 569.4694705915955 0 0 0 598.4983410157233,22.61267939947262 L 597.0305401732352,19.99627715845711 L 605.9646806059274,19.57067789984262 L 600.9446757532036,26.973349801165128 L 599.4768749107154,24.35694756014962 A 571.4694705915955 571.4694705915955 0 0 1 332.19408983624055,97.29563727459958"/><text text-anchor="middle" pointer-events="none" font-size="8px" fill="#000000" x="316.3531966377851" y="99.41754127491708" font-family="Helvetica Neue, Helvetica, Arial, sans-serif">TAKES</text></g><g class="relationship" transform="translate(166.51519080564833 -311.2837637209163) rotate(534.1190937212016)"><path class="b-outline" fill="#F16667" stroke="none" d="M 11.3186876303899 38.37821400646021 L 21.671449434490732 77.01524705802294 A 22.435935394489817 22.435935394489817 0 1 1 -21.671449434490732 77.01524705802294 L -13.389239991210065 46.105620616772754 L -8.559610859764723 47.39971584228536 L -10.352761804100831 38.63703305156273 L -16.287017470077267 45.329163481465194 L -11.457388338631928 46.62325870697779 L -19.739597781912593 77.53288514822798 A 20.435935394489817 20.435935394489817 0 1 0 19.739597781912593 77.53288514822798 L 9.386835977811764 38.89585209666525 Z"/><text text-anchor="middle" pointer-events="none" font-size="8px" fill="#000000" x="0" y="114.25802982729645" transform="rotate(180 0 111.25802982729645)" font-family="Helvetica Neue, Helvetica, Arial, sans-serif">INHERITS</text></g><g class="relationship" transform="translate(-24.835552732408516 300.3318603526079) rotate(251.46384539291773)"><path class="b-outline" fill="#8DCC93" stroke="none" d="M 27.577164466275356,-28.991378028648445 L 28.991378028648448,-27.577164466275352 A 414.0730832886497 414.0730832886497 0 0 1 302.55436058870373,-148.4095487103201 L 302.4614740751084,-150.4073905698255 A 416.0730832886497 416.0730832886497 0 0 0 27.577164466275356,-28.991378028648445 Z M 333.8759976830241,-150.68065225419883 L 333.8178793617975,-148.68149686735723 A 414.0730832886497 414.0730832886497 0 0 1 609.4414474209115,-32.62625467806219 L 607.3573502223633,-30.468353181931448 L 615.8905504767762,-27.7879626473104 L 612.9149427518253,-36.222757171613424 L 610.8308455532771,-34.06485567548268 A 416.0730832886497 416.0730832886497 0 0 0 333.8759976830241,-150.68065225419883"/><text text-anchor="middle" pointer-events="none" font-size="8px" fill="#000000" x="318.17485412109716" y="-146.8406602395168" transform="rotate(180 318.17485412109716 -149.8406602395168)" font-family="Helvetica Neue, Helvetica, Arial, sans-serif">CALLS</text></g><g class="relationship" transform="translate(-229.7757188108101 -310.8877057895154) rotate(464.59469173975634)"><path class="b-outline" fill="#8DCC93" stroke="none" d="M 11.3186876303899 38.37821400646021 L 21.671449434490732 77.01524705802294 A 22.435935394489817 22.435935394489817 0 1 1 -21.671449434490732 77.01524705802294 L -13.389239991210065 46.105620616772754 L -8.559610859764723 47.39971584228536 L -10.352761804100831 38.63703305156273 L -16.287017470077267 45.329163481465194 L -11.457388338631928 46.62325870697779 L -19.739597781912593 77.53288514822798 A 20.435935394489817 20.435935394489817 0 1 0 19.739597781912593 77.53288514822798 L 9.386835977811764 38.89585209666525 Z"/><text text-anchor="middle" pointer-events="none" font-size="8px" fill="#000000" x="0" y="114.25802982729645" transform="rotate(180 0 111.25802982729645)" font-family="Helvetica Neue, Helvetica, Arial, sans-serif">CALLS</text></g><g class="relationship" transform="translate(-229.7757188108101 -310.8877057895154) rotate(431.46384539291773)"><path class="b-outline" fill="#8DCC93" stroke="none" d="M 38.37821400646021,11.318687630389897 L 38.89585209666525,9.386835977811762 A 1093.0007523988636 1093.0007523988636 0 0 0 302.6577893041651,46.46255561371095 L 302.6227893761545,48.462249341519964 A 1095.0007523988636 1095.0007523988636 0 0 1 38.37821400646021,11.318687630389897 Z M 333.9978683526245,48.56182742538476 L 333.975562239689,46.56195181992189 A 1093.0007523988636 1093.0007523988636 0 0 0 597.9675248967486,11.161215126375692 L 597.2094771246084,8.258567442767994 L 605.9606013104159,10.107303628537485 L 599.2309378503157,15.998961265721857 L 598.4728900781755,13.096313582114158 A 1095.0007523988636 1095.0007523988636 0 0 1 333.9978683526245,48.56182742538476"/><text text-anchor="middle" pointer-events="none" font-size="8px" fill="#000000" x="318.31314597217715" y="50.62442360023442" font-family="Helvetica Neue, Helvetica, Arial, sans-serif">CALLS</text></g><g class="relationship" transform="translate(-24.835552732408516 300.3318603526079) rotate(315.2182872477896)"><path class="b-outline" fill="#8DCC93" stroke="none" d="M 11.3186876303899 38.37821400646021 L 21.671449434490732 77.01524705802294 A 22.435935394489817 22.435935394489817 0 1 1 -21.671449434490732 77.01524705802294 L -13.389239991210065 46.105620616772754 L -8.559610859764723 47.39971584228536 L -10.352761804100831 38.63703305156273 L -16.287017470077267 45.329163481465194 L -11.457388338631928 46.62325870697779 L -19.739597781912593 77.53288514822798 A 20.435935394489817 20.435935394489817 0 1 0 19.739597781912593 77.53288514822798 L 9.386835977811764 38.89585209666525 Z"/><text text-anchor="middle" pointer-events="none" font-size="8px" fill="#000000" x="0" y="114.25802982729645" font-family="Helvetica Neue, Helvetica, Arial, sans-serif">CALLS</text></g><g class="relationship" transform="translate(-229.7757188108101 -310.8877057895154) rotate(187.268714831661)"><path class="b-outline" fill="#4C8EDA" stroke="none" d="M 11.3186876303899 38.37821400646021 L 21.671449434490732 77.01524705802294 A 22.435935394489817 22.435935394489817 0 1 1 -21.671449434490732 77.01524705802294 L -13.389239991210065 46.105620616772754 L -8.559610859764723 47.39971584228536 L -10.352761804100831 38.63703305156273 L -16.287017470077267 45.329163481465194 L -11.457388338631928 46.62325870697779 L -19.739597781912593 77.53288514822798 A 20.435935394489817 20.435935394489817 0 1 0 19.739597781912593 77.53288514822798 L 9.386835977811764 38.89585209666525 Z"/><text text-anchor="middle" pointer-events="none" font-size="8px" fill="#000000" x="0" y="114.25802982729645" transform="rotate(180 0 111.25802982729645)" font-family="Helvetica Neue, Helvetica, Arial, sans-serif">CONTAINS</text></g><g class="relationship" transform="translate(166.51519080564833 -311.2837637209163) rotate(467.3728720649357)"><path class="b-outline" fill="#4C8EDA" stroke="none" d="M 40 1 L 293.05197503473386 1 L 293.05197503473386 -1 L 40 -1 Z M 339.79806878473386 1 L 592.8500438194677 1 L 592.8500438194677 4 L 600.8500438194677 0 L 592.8500438194677 -4 L 592.8500438194677 -1 L 339.79806878473386 -1 Z"/><text text-anchor="middle" pointer-events="none" font-size="8px" fill="#000000" x="316.42502190973386" y="3" transform="rotate(180 316.42502190973386 0)" font-family="Helvetica Neue, Helvetica, Arial, sans-serif">CONTAINS</text></g><g class="relationship" transform="translate(166.51519080564833 -311.2837637209163) rotate(432.47180531647376)"><path class="b-outline" fill="#4C8EDA" stroke="none" d="M 38.37821400646021,-11.318687630389897 L 38.89585209666525,-9.386835977811762 A 534.8815086028911 534.8815086028911 0 0 1 150.97514606429363,-26.96263800900647 L 150.87658880662804,-28.960208149692676 A 536.8815086028911 536.8815086028911 0 0 0 38.37821400646021,-11.318687630389897 Z M 197.69431121897557,-29.22625377227962 L 197.61846231192084,-27.22769255397816 A 534.8815086028911 534.8815086028911 0 0 1 309.89026351810924,-10.926784381734743 L 309.1467891897402,-8.020369765225903 L 317.88852727158917,-9.912991044920297 L 311.1293873987243,-15.77080874258281 L 310.3859130703553,-12.86439412607397 A 536.8815086028911 536.8815086028911 0 0 0 197.69431121897557,-29.22625377227962"/><text text-anchor="middle" pointer-events="none" font-size="8px" fill="#000000" x="174.28823107838863" y="-25.60382934862821" font-family="Helvetica Neue, Helvetica, Arial, sans-serif">CONTAINS</text></g><g class="relationship" transform="translate(-361.350896497948 16.074963040049134) rotate(361.1473146370945)"><path class="b-outline" fill="#4C8EDA" stroke="none" d="M 40 1 L 290.3293389781786 1 L 290.3293389781786 -1 L 40 -1 Z M 337.0754327281786 1 L 587.4047717063572 1 L 587.4047717063572 4 L 595.4047717063572 0 L 587.4047717063572 -4 L 587.4047717063572 -1 L 337.0754327281786 -1 Z"/><text text-anchor="middle" pointer-events="none" font-size="8px" fill="#000000" x="313.7023858531786" y="3" font-family="Helvetica Neue, Helvetica, Arial, sans-serif">CONTAINS</text></g><g class="relationship" transform="translate(-229.7757188108101 -310.8877057895154) rotate(359.9427379235656)"><path class="b-outline" fill="#4C8EDA" stroke="none" d="M 40 1 L 170.77250688947703 1 L 170.77250688947703 -1 L 40 -1 Z M 217.51860063947703 1 L 348.29110752895406 1 L 348.29110752895406 4 L 356.29110752895406 0 L 348.29110752895406 -4 L 348.29110752895406 -1 L 217.51860063947703 -1 Z"/><text text-anchor="middle" pointer-events="none" font-size="8px" fill="#000000" x="194.14555376447703" y="3" font-family="Helvetica Neue, Helvetica, Arial, sans-serif">CONTAINS</text></g><g class="relationship" transform="translate(-24.835552732408516 300.3318603526079) rotate(287.3728720649357)"><path class="b-outline" fill="#4C8EDA" stroke="none" d="M 34.14101615137755,-20.866025403784434 L 35.14101615137755,-19.13397459621556 A 569.4694705915955 569.4694705915955 0 0 1 293.03721916733025,-94.7956286761887 L 292.94296114766166,-96.7934062978793 A 571.4694705915955 571.4694705915955 0 0 0 34.14101615137755,-20.866025403784434 Z M 339.75700520909265,-97.08248080308022 L 339.6874258009701,-95.08369149303144 A 569.4694705915955 569.4694705915955 0 0 1 598.4983410157233,-22.61267939947262 L 597.0305401732352,-19.99627715845711 L 605.9646806059274,-19.57067789984262 L 600.9446757532036,-26.973349801165128 L 599.4768749107154,-24.35694756014962 A 571.4694705915955 571.4694705915955 0 0 0 339.75700520909265,-97.08248080308022"/><text text-anchor="middle" pointer-events="none" font-size="8px" fill="#000000" x="316.3531966377851" y="-93.41754127491708" font-family="Helvetica Neue, Helvetica, Arial, sans-serif">CONTAINS</text></g><g class="relationship" transform="translate(-361.350896497948 16.074963040049134) rotate(400.18801726490096)"><path class="b-outline" fill="#4C8EDA" stroke="none" d="M 40 1 L 192.87939934263102 1 L 192.87939934263102 -1 L 40 -1 Z M 239.62549309263102 1 L 392.50489243526204 1 L 392.50489243526204 4 L 400.50489243526204 0 L 392.50489243526204 -4 L 392.50489243526204 -1 L 239.62549309263102 -1 Z"/><text text-anchor="middle" pointer-events="none" font-size="8px" fill="#000000" x="216.25244621763102" y="3" font-family="Helvetica Neue, Helvetica, Arial, sans-serif">CONTAINS</text></g><g class="relationship" transform="translate(-24.835552732408516 300.3318603526079) rotate(251.46384539291773)"><path class="b-outline" fill="#4C8EDA" stroke="none" d="M 38.37821400646021,11.318687630389897 L 38.89585209666525,9.386835977811762 A 1093.0007523988636 1093.0007523988636 0 0 0 294.9673233433307,46.300880564941735 L 294.9182512091594,48.30027845571999 A 1095.0007523988636 1095.0007523988636 0 0 1 38.37821400646021,11.318687630389897 Z M 341.7032794204746,48.448764566825275 L 341.6668995070399,46.449095468724636 A 1093.0007523988636 1093.0007523988636 0 0 0 597.9675248967486,11.161215126375692 L 597.2094771246084,8.258567442767994 L 605.9606013104159,10.107303628537485 L 599.2309378503157,15.998961265721857 L 598.4728900781755,13.096313582114158 A 1095.0007523988636 1095.0007523988636 0 0 1 341.7032794204746,48.448764566825275"/><text text-anchor="middle" pointer-events="none" font-size="8px" fill="#000000" x="318.31314597217715" y="50.62442360023442" transform="rotate(180 318.31314597217715 47.62442360023442)" font-family="Helvetica Neue, Helvetica, Arial, sans-serif">CONTAINS</text></g><g class="relationship" transform="translate(-24.835552732408516 300.3318603526079) rotate(402.7031522563453)"><path class="b-outline" fill="#4C8EDA" stroke="none" d="M 11.3186876303899 38.37821400646021 L 21.671449434490732 77.01524705802294 A 22.435935394489817 22.435935394489817 0 1 1 -21.671449434490732 77.01524705802294 L -13.389239991210065 46.105620616772754 L -8.559610859764723 47.39971584228536 L -10.352761804100831 38.63703305156273 L -16.287017470077267 45.329163481465194 L -11.457388338631928 46.62325870697779 L -19.739597781912593 77.53288514822798 A 20.435935394489817 20.435935394489817 0 1 0 19.739597781912593 77.53288514822798 L 9.386835977811764 38.89585209666525 Z"/><text text-anchor="middle" pointer-events="none" font-size="8px" fill="#000000" x="0" y="114.25802982729645" font-family="Helvetica Neue, Helvetica, Arial, sans-serif">CONTAINS</text></g><g class="relationship" transform="translate(-229.7757188108101 -310.8877057895154) rotate(393.9948398514339)"><path class="b-outline" fill="#4C8EDA" stroke="none" d="M 40 1 L 276.3958225044152 1 L 276.3958225044152 -1 L 40 -1 Z M 323.1419162544152 1 L 559.5377387588304 1 L 559.5377387588304 4 L 567.5377387588304 0 L 559.5377387588304 -4 L 559.5377387588304 -1 L 323.1419162544152 -1 Z"/><text text-anchor="middle" pointer-events="none" font-size="8px" fill="#000000" x="299.7688693794152" y="3" font-family="Helvetica Neue, Helvetica, Arial, sans-serif">CONTAINS</text></g><g class="relationship" transform="translate(-24.835552732408516 300.3318603526079) rotate(317.7334222392339)"><path class="b-outline" fill="#4C8EDA" stroke="none" d="M 40 1 L 174.48677111862756 1 L 174.48677111862756 -1 L 40 -1 Z M 221.23286486862756 1 L 355.7196359872551 1 L 355.7196359872551 4 L 363.7196359872551 0 L 355.7196359872551 -4 L 355.7196359872551 -1 L 221.23286486862756 -1 Z"/><text text-anchor="middle" pointer-events="none" font-size="8px" fill="#000000" x="197.85981799362756" y="3" font-family="Helvetica Neue, Helvetica, Arial, sans-serif">CONTAINS</text></g><g class="relationship" transform="translate(166.51519080564833 -311.2837637209163) rotate(258.2954495188377)"><path class="b-outline" fill="#4C8EDA" stroke="none" d="M 11.3186876303899 38.37821400646021 L 21.671449434490732 77.01524705802294 A 22.435935394489817 22.435935394489817 0 1 1 -21.671449434490732 77.01524705802294 L -13.389239991210065 46.105620616772754 L -8.559610859764723 47.39971584228536 L -10.352761804100831 38.63703305156273 L -16.287017470077267 45.329163481465194 L -11.457388338631928 46.62325870697779 L -19.739597781912593 77.53288514822798 A 20.435935394489817 20.435935394489817 0 1 0 19.739597781912593 77.53288514822798 L 9.386835977811764 38.89585209666525 Z"/><text text-anchor="middle" pointer-events="none" font-size="8px" fill="#000000" x="0" y="114.25802982729645" transform="rotate(180 0 111.25802982729645)" font-family="Helvetica Neue, Helvetica, Arial, sans-serif">CONTAINS</text></g><g class="relationship" transform="translate(166.51519080564833 -311.2837637209163) rotate(539.9427379235656)"><path class="b-outline" fill="#4C8EDA" stroke="none" d="M 34.14101615137755,20.866025403784434 L 35.14101615137755,19.13397459621556 A 324.23260336845266 324.23260336845266 0 0 0 170.76935497406922,61.48913733618997 L 170.60596632908812,63.48245220110499 A 326.23260336845266 326.23260336845266 0 0 1 34.14101615137755,20.866025403784434 Z M 217.45313497906182,63.94718360061813 L 217.32932260142127,61.95101965566198 A 324.23260336845266 324.23260336845266 0 0 0 353.77122707436223,22.294837207909726 L 352.32306386425256,19.667514746375005 L 361.26014137515807,19.30884280146217 L 356.18483242454505,26.673707977134256 L 354.7366692144354,24.046385515599535 A 326.23260336845266 326.23260336845266 0 0 1 217.45313497906182,63.94718360061813"/><text text-anchor="middle" pointer-events="none" font-size="8px" fill="#000000" x="194.03111717634812" y="66.55690489304294" transform="rotate(180 194.03111717634812 63.55690489304294)" font-family="Helvetica Neue, Helvetica, Arial, sans-serif">CONTAINS</text></g><g class="relationship" transform="translate(-229.7757188108101 -310.8877057895154) rotate(431.46384539291773)"><path class="b-outline" fill="#4C8EDA" stroke="none" d="M 27.577164466275356,-28.991378028648445 L 28.991378028648448,-27.577164466275352 A 414.0730832886497 414.0730832886497 0 0 1 294.88572712450997,-147.98169812744618 L 294.75580061109974,-149.97747344072997 A 416.0730832886497 416.0730832886497 0 0 0 27.577164466275356,-28.991378028648445 Z M 341.5879839011865,-150.3848468406406 L 341.4927952356963,-148.38711334541102 A 414.0730832886497 414.0730832886497 0 0 1 609.4414474209115,-32.62625467806219 L 607.3573502223633,-30.468353181931448 L 615.8905504767762,-27.7879626473104 L 612.9149427518253,-36.222757171613424 L 610.8308455532771,-34.06485567548268 A 416.0730832886497 416.0730832886497 0 0 0 341.5879839011865,-150.3848468406406"/><text text-anchor="middle" pointer-events="none" font-size="8px" fill="#000000" x="318.17485412109716" y="-146.8406602395168" font-family="Helvetica Neue, Helvetica, Arial, sans-serif">CONTAINS</text></g><g class="relationship" transform="translate(-361.350896497948 16.074963040049134) rotate(328.1946779007337)"><path class="b-outline" fill="#4C8EDA" stroke="none" d="M 40 1 L 283.19350883881486 1 L 283.19350883881486 -1 L 40 -1 Z M 329.93960258881486 1 L 573.1331114276297 1 L 573.1331114276297 4 L 581.1331114276297 0 L 573.1331114276297 -4 L 573.1331114276297 -1 L 329.93960258881486 -1 Z"/><text text-anchor="middle" pointer-events="none" font-size="8px" fill="#000000" x="306.56655571381486" y="3" font-family="Helvetica Neue, Helvetica, Arial, sans-serif">CONTAINS</text></g><g class="relationship" transform="translate(-361.350896497948 16.074963040049134) rotate(291.9206686478517)"><path class="b-outline" fill="#4C8EDA" stroke="none" d="M 40 1 L 148.84884038049486 1 L 148.84884038049486 -1 L 40 -1 Z M 195.59493413049486 1 L 304.4437745109897 1 L 304.4437745109897 4 L 312.4437745109897 0 L 304.4437745109897 -4 L 304.4437745109897 -1 L 195.59493413049486 -1 Z"/><text text-anchor="middle" pointer-events="none" font-size="8px" fill="#000000" x="172.22188725549486" y="3" font-family="Helvetica Neue, Helvetica, Arial, sans-serif">CONTAINS</text></g><g class="relationship" transform="translate(166.51519080564833 -311.2837637209163) rotate(432.47180531647376)"><path class="b-outline" fill="#F79767" stroke="none" d="M 38.37821400646021,11.318687630389897 L 38.89585209666525,9.386835977811762 A 534.8815086028911 534.8815086028911 0 0 0 143.2948336132057,26.528318306229494 L 143.16755854672613,28.524264462179758 A 536.8815086028911 536.8815086028911 0 0 1 38.37821400646021,11.318687630389897 Z M 205.40779803162732,28.877949827689008 L 205.30321471413356,26.880686117083428 A 534.8815086028911 534.8815086028911 0 0 0 309.89026351810924,10.926784381734743 L 309.1467891897402,8.020369765225903 L 317.88852727158917,9.912991044920297 L 311.1293873987243,15.77080874258281 L 310.3859130703553,12.86439412607397 A 536.8815086028911 536.8815086028911 0 0 1 205.40779803162732,28.877949827689008"/><text text-anchor="middle" pointer-events="none" font-size="8px" fill="#000000" x="174.28823107838878" y="31.60382934862821" font-family="Helvetica Neue, Helvetica, Arial, sans-serif">INSTANTIATES</text></g></g><g class="layer nodes"><g class="node" aria-label="graph-node-176" transform="translate(-24.835552732408516,300.3318603526079)"><circle class="b-outline" cx="0" cy="0" r="40" fill="#57C7E3" stroke="#23b3d7" stroke-width="2px"/><text class="caption" text-anchor="middle" pointer-events="none" x="0" y="5" font-size="10px" fill="#2A2C34" font-family="Helvetica Neue, Helvetica, Arial, sans-serif"> Function</text></g><g class="node" aria-label="graph-node-178" transform="translate(273.9264880154026,28.797723474967682)"><circle class="b-outline" cx="0" cy="0" r="40" fill="#DA7194" stroke="#cc3c6c" stroke-width="2px"/><text class="caption" text-anchor="middle" pointer-events="none" x="0" y="5" font-size="10px" fill="#FFFFFF" font-family="Helvetica Neue, Helvetica, Arial, sans-serif"> Variable</text></g><g class="node" aria-label="graph-node-175" transform="translate(166.51519080564833,-311.2837637209163)"><circle class="b-outline" cx="0" cy="0" r="40" fill="#F16667" stroke="#eb2728" stroke-width="2px"/><text class="caption" text-anchor="middle" pointer-events="none" x="0" y="5" font-size="10px" fill="#FFFFFF" font-family="Helvetica Neue, Helvetica, Arial, sans-serif"> Class</text></g><g class="node" aria-label="graph-node-177" transform="translate(-229.7757188108101,-310.8877057895154)"><circle class="b-outline" cx="0" cy="0" r="40" fill="#FFC454" stroke="#d7a013" stroke-width="2px"/><text class="caption" text-anchor="middle" pointer-events="none" x="0" y="5" font-size="10px" fill="#2A2C34" font-family="Helvetica Neue, Helvetica, Arial, sans-serif"> Method</text></g><g class="node" aria-label="graph-node-179" transform="translate(-361.350896497948,16.074963040049134)"><circle class="b-outline" cx="0" cy="0" r="40" fill="#8DCC93" stroke="#5db665" stroke-width="2px"/><text class="caption" text-anchor="middle" pointer-events="none" x="0" y="5" font-size="10px" fill="#2A2C34" font-family="Helvetica Neue, Helvetica, Arial, sans-serif"> Module</text></g></g></svg>